<?xml version="1.0" standalone="no"?>
<!DOCTYPE svg PUBLIC "-//W3C//DTD SVG 20010904//EN"
 "http://www.w3.org/TR/2001/REC-SVG-20010904/DTD/svg10.dtd">
<svg version="1.0" xmlns="http://www.w3.org/2000/svg"
 width="1280.000000pt" height="1280.000000pt" viewBox="0 0 1280.000000 1280.000000"
 preserveAspectRatio="xMidYMid meet">
<metadata>
Created by potrace 1.16, written by Peter Selinger 2001-2019
</metadata>
<g transform="translate(0.000000,1280.000000) scale(0.100000,-0.100000)"
fill="#000000" stroke="none">
<path d="M7905 9380 c-172 -37 -318 -147 -389 -293 -51 -104 -56 -154 -56
-638 l0 -445 -117 -18 c-169 -25 -494 -90 -684 -137 -1891 -465 -3313 -1571
-4222 -3284 -246 -464 -471 -1023 -632 -1575 -88 -302 -210 -810 -203 -847 2
-10 19 6 48 48 198 283 561 696 833 947 969 897 2093 1409 3547 1616 365 52
973 95 1343 96 l87 0 0 -472 c0 -512 4 -560 55 -664 57 -116 174 -220 300
-266 73 -26 226 -35 308 -18 145 30 66 -43 1465 1354 706 704 1296 1301 1312
1325 41 60 69 141 83 232 14 96 -6 205 -54 306 -31 64 -106 142 -1303 1341
-699 700 -1294 1289 -1322 1308 -105 73 -281 110 -399 84z"/>
</g>
</svg>
