<svg width="33" height="34" viewBox="0 0 33 34" fill="none" xmlns="http://www.w3.org/2000/svg">
<path d="M23.8333 25.5V20.4H11V13.6H23.8333V8.5L33 17L23.8333 25.5ZM20.1667 0C21.1391 0 22.0718 0.358213 22.7594 0.995837C23.447 1.63346 23.8333 2.49826 23.8333 3.4V6.8H20.1667V3.4H3.66667V30.6H20.1667V27.2H23.8333V30.6C23.8333 31.5017 23.447 32.3665 22.7594 33.0042C22.0718 33.6418 21.1391 34 20.1667 34H3.66667C2.69421 34 1.76157 33.6418 1.07394 33.0042C0.386308 32.3665 0 31.5017 0 30.6V3.4C0 2.49826 0.386308 1.63346 1.07394 0.995837C1.76157 0.358213 2.69421 0 3.66667 0H20.1667Z" fill="currentColor"/>
</svg>
